<svg xmlns="http://www.w3.org/2000/svg" width="15" height="15" viewBox="0 0 15 15">
  <defs>
    <style>
      .cls-1 {
        fill: #f5c506;
        fill-rule: evenodd;
      }
    </style>
  </defs>
  <path class="cls-1" d="M688.371,434.977v-0.958H694v0.958h-5.629Zm-0.186-2.8,5.075-2.428,0.416,0.863-5.077,2.429Zm-0.434-2.136L691.239,427l0.52,0.593-3.489,3.042Zm-5.49,7.306v-5.7c1.447-1.32,3.208-2,4.415-3.469v12.638C685.469,439.342,683.709,438.666,682.261,437.347ZM679,431.659h2.915v5.646H679v-5.646Zm12.759,9.746L691.24,442l-3.489-3.041,0.52-.593Zm-3.35-5.4,5.075,2.428-0.414.864-5.077-2.428Z" transform="translate(-679 -427)"/>
</svg>
